HIERARCHY
ROOT Hips
{
	OFFSET 0.000000 0.000000 0.000000
	CHANNELS 6 Xposition Yposition Zposition Zrotation Yrotation Xrotation 
	JOINT LHipJoint
	{
		OFFSET 0.000000 0.000000 0.000000
		CHANNELS 3 Zrotation Yrotation Xrotation
		JOINT LeftUpLeg
		{
			OFFSET 1.363060 -1.794630 0.839290
			CHANNELS 3 Zrotation Yrotation Xrotation
			JOINT LeftLeg
			{
				OFFSET 2.448110 -6.726130 0.000000
				CHANNELS 3 Zrotation Yrotation Xrotation
				JOINT LeftFoot
				{
					OFFSET 2.562200 -7.039590 0.000000
					CHANNELS 3 Zrotation Yrotation Xrotation
					JOINT LeftToeBase
					{
						OFFSET 0.157640 -0.433110 2.322550
						CHANNELS 3 Zrotation Yrotation Xrotation
						End Site
						{
							OFFSET 0.000000 0.000000 0.000000
						}
					}
				}
			}
		}
	}
	JOINT RHipJoint
	{
		OFFSET 0.000000 0.000000 0.000000
		CHANNELS 3 Zrotation Yrotation Xrotation
		JOINT RightUpLeg
		{
			OFFSET -1.305520 -1.794630 0.839290
			CHANNELS 3 Zrotation Yrotation Xrotation
			JOINT RightLeg
			{
				OFFSET -2.542530 -6.985550 0.000000
				CHANNELS 3 Zrotation Yrotation Xrotation
				JOINT RightFoot
				{
					OFFSET -2.568260 -7.056230 0.000000
					CHANNELS 3 Zrotation Yrotation Xrotation
					JOINT RightToeBase
					{
						OFFSET -0.164730 -0.452590 2.363150
						CHANNELS 3 Zrotation Yrotation Xrotation
						End Site
						{
							OFFSET 0.000000 0.000000 0.000000
						}
					}
				}
			}
		}
	}
	JOINT LowerBack
	{
		OFFSET 0.000000 0.000000 0.000000
		CHANNELS 3 Zrotation Yrotation Xrotation
		JOINT Spine
		{
			OFFSET 0.028270 2.035590 -0.193380
			CHANNELS 3 Zrotation Yrotation Xrotation
			JOINT Spine1
			{
				OFFSET 0.056720 2.048850 -0.042750
				CHANNELS 3 Zrotation Yrotation Xrotation
				JOINT Neck
				{
					OFFSET 0.000000 0.000000 0.000000
					CHANNELS 3 Zrotation Yrotation Xrotation
					JOINT Neck1
					{
						OFFSET -0.054170 1.746240 0.172020
						CHANNELS 3 Zrotation Yrotation Xrotation
						JOINT Head
						{
							OFFSET 0.104070 1.761360 -0.123970
							CHANNELS 3 Zrotation Yrotation Xrotation
							End Site
							{
								OFFSET 0.000000 0.000000 0.000000
							}
						}
					}
				}
				JOINT LeftShoulder
				{
					OFFSET 0.000000 0.000000 0.000000
					CHANNELS 3 Zrotation Yrotation Xrotation
					JOINT LeftArm
					{
						OFFSET 3.362410 1.200890 -0.311210
						CHANNELS 3 Zrotation Yrotation Xrotation
						JOINT LeftForeArm
						{
							OFFSET 4.983000 -0.000000 -0.000000
							CHANNELS 3 Zrotation Yrotation Xrotation
							JOINT LeftHand
							{
								OFFSET 3.483560 -0.000000 -0.000000
								CHANNELS 3 Zrotation Yrotation Xrotation
								JOINT LeftFingerBase
								{
									OFFSET 0.000000 0.000000 0.000000
									CHANNELS 3 Zrotation Yrotation Xrotation
									JOINT LeftHandIndex1
									{
										OFFSET 0.715260 -0.000000 -0.000000
										CHANNELS 3 Zrotation Yrotation Xrotation
										End Site
										{
											OFFSET 0.000000 0.000000 0.000000
										}
									}
								}
								JOINT LThumb
								{
									OFFSET 0.000000 0.000000 0.000000
									CHANNELS 3 Zrotation Yrotation Xrotation
									End Site
									{
										OFFSET 0.000000 0.000000 0.000000
									}
								}
							}
						}
					}
				}
				JOINT RightShoulder
				{
					OFFSET 0.000000 0.000000 0.000000
					CHANNELS 3 Zrotation Yrotation Xrotation
					JOINT RightArm
					{
						OFFSET -3.136600 1.374050 -0.404650
						CHANNELS 3 Zrotation Yrotation Xrotation
						JOINT RightForeArm
						{
							OFFSET -5.241900 -0.000000 -0.000000
							CHANNELS 3 Zrotation Yrotation Xrotation
							JOINT RightHand
							{
								OFFSET -3.444170 -0.000000 -0.000000
								CHANNELS 3 Zrotation Yrotation Xrotation
								JOINT RightFingerBase
								{
									OFFSET 0.000000 0.000000 0.000000
									CHANNELS 3 Zrotation Yrotation Xrotation
									JOINT RightHandIndex1
									{
										OFFSET -0.622530 -0.000000 -0.000000
										CHANNELS 3 Zrotation Yrotation Xrotation
										End Site
										{
											OFFSET 0.000000 0.000000 0.000000
										}
									}
								}
								JOINT RThumb
								{
									OFFSET 0.000000 0.000000 0.000000
									CHANNELS 3 Zrotation Yrotation Xrotation
									End Site
									{
										OFFSET 0.000000 0.000000 0.000000
									}
								}
							}
						}
					}
				}
			}
		}
	}
}
MOTION
Frames: 6
Frame Time: 0.008333
10.914372 18.014258 4.917910 177.977547 2.989697 -160.185749 10.954049 0.935243 -3.203492 -14.305324 -20.528566 -71.301951 22.504278 25.692726 98.128097 1.912120 -4.291160 -26.795747 2.284400 -9.435000 -27.165700 -14.372977 -2.569880 -1.647140 32.583531 18.672015 -17.258394 1.144120 -5.187843 12.043232 -0.832655 -2.400931 -18.680404 -4.444000 12.728900 -38.362000 -2.617907 0.300120 -13.466291 1.533839 0.494954 -3.790955 0.290397 -0.401896 13.197050 -9.353572 -4.228348 -4.881259 8.743395 -5.682562 27.478394 1.049000 -0.980400 6.768900 16.282464 -0.481308 0.795218 -104.189732 0.743416 20.545712 12.969013 -15.548176 -2.351486 -1.441239 0.723956 8.763592 18.607659 -9.195539 -3.514300 -7.125000 0.000000 0.000000 -4.872400 19.743300 2.950700 -11.385784 0.666167 -0.130937 95.381103 0.416321 10.494889 -20.389365 32.368040 -7.587552 0.195159 3.682923 -5.349552 -9.953970 -48.069808 8.268300 7.125000 0.000000 0.000000 62.703400 -74.703700 -47.897800 
10.922261 18.015682 4.850966 177.954804 3.028841 -160.261347 10.982608 0.962248 -3.209868 -13.887608 -20.622569 -72.323634 22.248493 25.780962 97.427218 1.962555 -4.126103 -27.025157 2.263800 -9.395300 -27.039800 -14.367894 -2.592293 -1.664662 32.717587 18.552401 -16.959484 1.136086 -5.180660 12.122004 -0.847884 -2.414656 -18.804063 -4.469600 12.760400 -38.477900 -2.591178 0.342180 -13.270181 1.509535 0.552469 -3.788964 0.195118 -0.360278 13.081983 -9.333465 -4.233442 -4.846425 8.701165 -5.671453 27.504950 1.035900 -0.972600 6.778200 16.274678 -0.466930 0.805853 -104.180255 0.940293 20.222631 12.845915 -15.363744 -2.297462 -1.463471 0.790847 8.923602 18.839641 -9.621279 -3.740200 -7.125000 0.000000 0.000000 -4.690300 19.215600 2.894900 -11.407087 0.670232 -0.146468 95.342803 0.672271 10.902644 -20.638224 32.623254 -7.734881 0.178297 3.660158 -5.655604 -9.867801 -47.864219 8.174300 7.125000 0.000000 0.000000 61.970800 -74.583100 -47.121900 
10.927630 18.013601 4.774819 177.993783 2.989710 -160.241636 11.015546 0.989744 -3.220913 -13.315231 -20.785749 -73.569346 22.042165 25.869727 96.855411 2.005968 -3.978658 -27.225183 2.181900 -9.235200 -26.533800 -14.361781 -2.633853 -1.684007 32.953618 18.307116 -16.640734 1.136335 -5.117576 12.060148 -0.860835 -2.408986 -18.890481 -4.572600 12.885700 -38.942000 -2.470303 0.384089 -13.298625 1.484689 0.587702 -3.792415 0.040194 -0.319282 13.082853 -9.531508 -4.192569 -4.770084 8.973795 -5.714042 27.426507 1.170600 -1.000600 6.745400 16.248330 -0.480719 0.821506 -104.101473 1.079055 19.774235 12.663650 -15.088925 -2.217521 -1.476770 0.859516 9.139949 18.975273 -10.018077 -3.939200 -7.125000 0.000000 0.000000 -4.584300 18.722600 2.879400 -11.442727 0.629880 -0.162797 95.359572 0.846760 11.351881 -20.938124 32.938714 -7.912285 0.148622 3.632794 -5.843099 -9.465261 -47.717818 7.821300 7.125000 0.000000 0.000000 61.664600 -74.357600 -46.611200 
10.936066 18.012505 4.703602 177.926395 3.123748 -160.239352 11.048181 1.028024 -3.238360 -12.903568 -20.814253 -74.733083 21.789045 25.951208 96.166989 2.051531 -3.762160 -27.396988 2.013800 -8.894800 -25.466800 -14.359501 -2.648052 -1.709474 33.022866 18.253510 -16.241408 1.140812 -5.021353 11.916911 -0.874938 -2.409971 -18.988420 -4.590300 12.907000 -39.021400 -2.550121 0.439341 -13.281614 1.437661 0.703693 -3.728999 -0.045040 -0.283616 13.299550 -9.492206 -4.224578 -5.247922 8.978020 -5.668686 27.667938 1.180900 -0.957900 6.937400 16.213438 -0.460171 0.828236 -103.989704 0.895588 19.317235 12.503566 -14.824668 -2.143920 -1.437501 0.848569 9.369197 18.590123 -9.762693 -3.757300 -7.125000 0.000000 0.000000 -4.879000 19.031600 3.032300 -11.462836 0.666094 -0.177569 95.397073 1.343937 11.713937 -21.213275 33.220183 -8.076198 0.131233 3.617606 -5.991069 -9.289644 -47.705002 7.672300 7.125000 0.000000 0.000000 61.694300 -74.277900 -46.551600 
10.943735 18.012396 4.633590 177.935956 3.289443 -160.258059 11.076241 1.052334 -3.257155 -12.504532 -20.699138 -75.727410 21.472121 26.021176 95.315308 2.112695 -3.616424 -27.717102 1.968100 -8.799300 -25.169600 -14.360579 -2.670373 -1.720387 33.177703 18.220584 -15.870634 1.139301 -4.955775 11.842793 -0.896027 -2.279376 -19.131488 -4.584200 12.899600 -38.993900 -2.606447 0.547507 -13.301810 1.422252 0.854861 -3.708845 -0.033896 -0.204430 13.255096 -9.539792 -2.652916 -5.082405 9.232901 -6.219882 27.507066 1.073900 -2.194600 6.862700 16.219148 -0.533139 0.902340 -104.030445 1.012086 18.905478 12.369888 -14.601557 -2.082240 -1.417786 0.801167 9.552785 18.321853 -9.225500 -3.492200 -7.125000 0.000000 0.000000 -5.079900 19.666500 3.086000 -11.449475 0.660932 -0.129707 95.382006 1.520154 12.075122 -21.486449 33.485973 -8.243020 0.143048 3.651765 -6.102209 -9.699950 -48.423664 8.094900 7.125000 0.000000 0.000000 63.961700 -74.723100 -49.036700 
10.953487 18.012067 4.566537 177.944846 3.374866 -160.303069 11.096660 1.081484 -3.265236 -12.171434 -20.587513 -76.578957 21.084924 26.087373 94.282981 2.170708 -3.314123 -27.929643 2.204100 -9.278800 -26.671500 -14.357311 -2.693342 -1.738706 33.340688 18.106511 -15.552174 1.130261 -4.935680 11.889875 -0.917268 -2.174735 -19.277144 -4.557000 12.866800 -38.871900 -2.645303 0.571542 -13.155718 1.419818 0.895518 -3.690676 -0.024276 -0.181649 13.220413 -9.562439 -2.607683 -4.902487 9.061790 -6.075654 27.221903 1.026000 -2.140400 6.720600 16.199102 -0.535808 0.920784 -104.116169 1.118132 18.319686 12.238861 -14.393217 -2.022017 -1.443776 0.843479 9.905917 18.584467 -9.356939 -3.605800 -7.125000 0.000000 0.000000 -4.868900 19.479600 2.977300 -11.448312 0.655562 -0.136836 95.344922 1.885486 12.416704 -21.566253 33.544873 -8.285180 0.156048 3.634085 -5.893094 -9.577932 -48.176177 7.967500 7.125000 0.000000 0.000000 63.124800 -74.579700 -48.137300 
